<svg xmlns="http://www.w3.org/2000/svg" style="display: none;">

  <symbol id="product-card-icons-sprite__cart" viewBox="0 0 20 20">
    <path d="M6 16c1.1 0 1.999.9 1.999 2s-.9 2-2 2C4.9 20 4.01 19.1 4.01 18S4.9 16 6 16zM-.001 0H3.27l.939 2H19c.549 0 .997.45.997 1 0 .17-.039.34-.12.48l-3.58 6.49c-.338.62-.997 1.03-1.749 1.03H7.1l-.9 1.63-.029.12c0 .14.11.25.25.25h11.578v2H6c-1.1 0-2-.9-2-2 0-.35.089-.68.249-.96L5.6 9.59 2 2H0zM16 16c1.1 0 1.998.9 1.998 2S17.1 20 16 20s-1.989-.9-1.989-2 .89-2 1.99-2z"/>
  </symbol>

  <symbol id="product-card-icons-sprite__compare-list" viewBox="0 0 18 10">
    <path d="M0 6V4h2v2zm0 4V8h2v2zm0-8V0h2v2zm4 4V4h14v2zm0 4V8h14v2zM4 0h14v2H4z"/>
  </symbol>

  <symbol id="product-card-icons-sprite__wish-list" viewBox="0 0 20 19">
    <path d="M14.5 0C17.58 0 20 2.42 20 5.5c0 3.78-3.402 6.86-8.551 11.53l-1.45 1.32-1.45-1.31C3.401 12.36 0 9.28 0 5.5 0 2.42 2.42 0 5.498 0c1.74 0 3.412.81 4.5 2.09C11.089.81 12.76 0 14.5 0zm-4.4 15.55C14.859 11.24 18 8.39 18 5.5 18 3.5 16.5 2 14.5 2c-1.542 0-3.042.99-3.56 2.36H9.07C8.539 2.99 7.04 2 5.498 2 3.5 2 2 3.5 2 5.5c0 2.89 3.14 5.74 7.899 10.05l.1.1z"/>
  </symbol>
</svg>